<svg xmlns="http://www.w3.org/2000/svg" viewBox="0 0 512 512">
  <defs>
    <!-- Gradient for clipboard body -->
    <linearGradient id="boardGrad" x1="0%" y1="0%" x2="100%" y2="100%">
      <stop offset="0%" stop-color="#6366F1"/>
      <stop offset="100%" stop-color="#8B5CF6"/>
    </linearGradient>

    <!-- Metallic gradient for clip -->
    <linearGradient id="clipGrad" x1="0%" y1="0%" x2="0%" y2="100%">
      <stop offset="0%" stop-color="#F1F5F9"/>
      <stop offset="30%" stop-color="#CBD5E1"/>
      <stop offset="70%" stop-color="#94A3B8"/>
      <stop offset="100%" stop-color="#64748B"/>
    </linearGradient>

    <!-- Paper gradient -->
    <linearGradient id="paperGrad" x1="0%" y1="0%" x2="0%" y2="100%">
      <stop offset="0%" stop-color="#FFFFFF"/>
      <stop offset="100%" stop-color="#F8FAFC"/>
    </linearGradient>

    <!-- Drop shadow -->
    <filter id="shadow" x="-20%" y="-20%" width="140%" height="140%">
      <feDropShadow dx="0" dy="8" stdDeviation="16" flood-color="#1E1B4B" flood-opacity="0.35"/>
    </filter>

    <!-- Inner shadow for depth -->
    <filter id="innerDepth">
      <feDropShadow dx="0" dy="2" stdDeviation="2" flood-color="#4338CA" flood-opacity="0.3"/>
    </filter>
  </defs>

  <!-- Main clipboard group with shadow -->
  <g filter="url(#shadow)">
    <!-- Clipboard board -->
    <rect x="96" y="80" width="320" height="400" rx="32" ry="32" fill="url(#boardGrad)"/>

    <!-- Paper sheet -->
    <rect x="128" y="140" width="256" height="310" rx="16" ry="16" fill="url(#paperGrad)"/>

    <!-- Text lines on paper -->
    <g fill="#C7D2FE">
      <rect x="160" y="180" width="180" height="14" rx="7"/>
      <rect x="160" y="215" width="140" height="14" rx="7"/>
      <rect x="160" y="250" width="192" height="14" rx="7"/>
      <rect x="160" y="285" width="120" height="14" rx="7"/>
      <rect x="160" y="320" width="160" height="14" rx="7"/>
    </g>

    <!-- Binder clip - main body -->
    <g>
      <!-- Clip body -->
      <rect x="186" y="48" width="140" height="72" rx="12" ry="12" fill="url(#clipGrad)"/>

      <!-- Clip grip lines -->
      <g stroke="#64748B" stroke-width="3" stroke-linecap="round">
        <line x1="206" y1="60" x2="206" y2="108"/>
        <line x1="222" y1="60" x2="222" y2="108"/>
        <line x1="290" y1="60" x2="290" y2="108"/>
        <line x1="306" y1="60" x2="306" y2="108"/>
      </g>

      <!-- Clip handles/wings -->
      <path d="M194 120 C194 136, 210 148, 230 148"
            stroke="#94A3B8" stroke-width="10" stroke-linecap="round" fill="none"/>
      <path d="M318 120 C318 136, 302 148, 282 148"
            stroke="#94A3B8" stroke-width="10" stroke-linecap="round" fill="none"/>
    </g>
  </g>

  <!-- Accent checkmark badge -->
  <g filter="url(#innerDepth)">
    <circle cx="368" cy="400" r="44" fill="#10B981"/>
    <path d="M346 400 L360 414 L390 384"
          stroke="#FFFFFF" stroke-width="10" stroke-linecap="round" stroke-linejoin="round" fill="none"/>
  </g>
</svg>
